<svg width="32" height="32" viewBox="0 0 32 32" fill="none" xmlns="http://www.w3.org/2000/svg">
<path d="M32 16.3637C32 15.2291 31.8961 14.1382 31.7032 13.0909H16.3265V19.2873H25.1132C24.7273 21.28 23.5696 22.9673 21.833 24.1018V28.1309H27.1317C30.2189 25.3382 32 21.2364 32 16.3637Z" fill="#4285F4"/>
<path d="M16.3265 32C20.7347 32 24.4304 30.5746 27.1317 28.1309L21.833 24.1018C20.3785 25.0618 18.5232 25.6436 16.3265 25.6436C12.0816 25.6436 8.47494 22.8364 7.18366 19.0545H1.75138V23.1854C4.43784 28.4073 9.94433 32 16.3265 32Z" fill="#34A853"/>
<path d="M7.18367 19.04C6.85714 18.08 6.66419 17.0618 6.66419 16C6.66419 14.9382 6.85714 13.92 7.18367 12.96V8.82911H1.75139C0.638219 10.9818 0 13.4109 0 16C0 18.5891 0.638219 21.0182 1.75139 23.1709L5.98145 19.9419L7.18367 19.04Z" fill="#FBBC05"/>
<path d="M16.3265 6.37092C18.731 6.37092 20.8683 7.18546 22.5751 8.75637L27.2505 4.17455C24.4156 1.58546 20.7347 0 16.3265 0C9.94433 0 4.43785 3.59274 1.75139 8.82911L7.18367 12.96C8.47495 9.1782 12.0816 6.37092 16.3265 6.37092Z" fill="#EA4335"/>
</svg>
