<svg width="41" height="46" viewBox="0 0 41 46" fill="none" xmlns="http://www.w3.org/2000/svg">
<path d="M18.3593 43.6343C18.3596 43.6348 18.3603 43.6347 18.3603 43.6341C18.3664 43.5806 18.3755 43.527 18.3846 43.4749C18.3892 43.4523 18.3937 43.4312 18.3998 43.4087C18.409 43.3695 18.4197 43.3304 18.4304 43.2913C18.4395 43.2627 18.4472 43.2326 18.4579 43.2055C18.4655 43.1829 18.4747 43.1589 18.4838 43.1363C18.5067 43.0761 18.5311 43.0189 18.5586 42.9617C18.5647 42.9497 18.5693 42.9392 18.5754 42.9271C18.5937 42.8895 18.6136 42.8534 18.635 42.8173C19.0075 42.1822 19.7022 41.7548 20.4992 41.7548C21.2962 41.7548 21.9909 42.1822 22.3635 42.8173C22.3849 42.8534 22.4047 42.8895 22.423 42.9271C22.4291 42.9376 22.4337 42.9482 22.4383 42.9587C22.4673 43.0159 22.4917 43.0761 22.5147 43.1363C22.5223 43.1589 22.5314 43.1799 22.5391 43.2025C22.5498 43.2311 22.5574 43.2612 22.5666 43.2898C22.5772 43.3274 22.5879 43.365 22.5971 43.4042C22.6032 43.4282 22.6078 43.4508 22.6124 43.4749C22.6231 43.526 22.6307 43.5787 22.6368 43.6329C22.6383 43.6509 22.6414 43.669 22.6429 43.6871C22.649 43.7488 22.6521 43.812 22.6521 43.8767C22.6521 45.0489 21.6871 46 20.4977 46C19.3083 46 18.3433 45.0489 18.3433 43.8767C18.3433 43.812 18.3479 43.7488 18.3525 43.6856C18.354 43.668 18.3555 43.6519 18.3583 43.6345C18.3584 43.634 18.3591 43.6339 18.3593 43.6343Z" fill="#74D9FF"/>
<path d="M2.15435 31.2556C3.34376 31.2556 4.30872 32.2066 4.30872 33.3789C4.30872 33.7852 4.19115 34.1629 3.99113 34.485C3.9209 34.5978 3.84151 34.7032 3.75142 34.7995C3.74479 34.806 3.73912 34.8135 3.73278 34.8203C3.6513 34.908 3.56143 34.9874 3.4659 35.0598C3.45064 35.0703 3.43689 35.0824 3.42163 35.0929C3.38193 35.1215 3.34071 35.1486 3.29795 35.1757C3.26894 35.1937 3.24146 35.2118 3.21092 35.2268C3.18649 35.2404 3.16054 35.2539 3.13458 35.266C3.10252 35.2825 3.06893 35.2976 3.03687 35.3126C3.01702 35.3216 2.99717 35.3307 2.97732 35.3397C2.92541 35.3608 2.87349 35.3788 2.82005 35.3969C2.80173 35.4029 2.78188 35.4089 2.76204 35.4149C2.71165 35.43 2.65974 35.4435 2.60783 35.4541C2.59867 35.4556 2.59103 35.4586 2.58187 35.4601C2.5208 35.4721 2.45972 35.4812 2.39712 35.4887C2.38186 35.4902 2.36506 35.4917 2.34979 35.4932C2.28566 35.4992 2.22001 35.5022 2.15435 35.5022C0.964951 35.5022 0 34.5512 0 33.3789C0 32.2066 0.964951 31.2556 2.15435 31.2556Z" fill="#74D9FF"/>
<path d="M38.8449 14.6745C38.8444 14.674 38.8437 14.6737 38.843 14.6737C37.6541 14.6731 36.6898 13.7223 36.6898 12.5504C36.6898 12.1666 36.7951 11.807 36.9753 11.497C37.0165 11.4263 37.0623 11.3585 37.1112 11.2938C37.1203 11.2803 37.131 11.2667 37.1417 11.2547C37.1646 11.2246 37.189 11.196 37.2135 11.1674C37.2226 11.1569 37.2333 11.1464 37.2425 11.1358C37.2867 11.0877 37.331 11.0425 37.3799 10.9974C37.3982 10.9808 37.415 10.9658 37.4333 10.9492C37.4578 10.9282 37.4822 10.9071 37.5081 10.8875C37.5356 10.865 37.5646 10.8439 37.5952 10.8243C37.6257 10.8018 37.6578 10.7807 37.6914 10.7611C37.7219 10.7416 37.7524 10.7235 37.783 10.7054C37.8043 10.6934 37.8272 10.6814 37.8486 10.6693C37.896 10.6453 37.9448 10.6212 37.9952 10.6001C38.0089 10.5941 38.0242 10.5881 38.0395 10.5836C38.0838 10.5655 38.1296 10.5489 38.1769 10.5339C38.1952 10.5279 38.2135 10.5219 38.2319 10.5173C38.2849 10.5022 38.3392 10.4871 38.3937 10.4754C38.4038 10.4732 38.4144 10.4724 38.4242 10.4692C38.4823 10.4586 38.5403 10.4496 38.5998 10.4421C38.6166 10.4406 38.6334 10.4391 38.6502 10.4376C38.7143 10.4316 38.78 10.4286 38.8456 10.4286C40.035 10.4286 41 11.3796 41 12.5519C41 13.7238 40.0356 14.6746 38.8467 14.6752C38.846 14.6752 38.8454 14.6749 38.8449 14.6745Z" fill="#74D9FF"/>
<path d="M2.15512 14.6722C2.15465 14.6731 2.15369 14.6737 2.15266 14.6737C0.964035 14.6728 0 13.7221 0 12.5504C0 11.3781 0.964951 10.4271 2.15435 10.4271C2.22001 10.4271 2.28566 10.4316 2.34979 10.4361C2.36658 10.4376 2.38338 10.4391 2.40018 10.4406C2.45382 10.446 2.50623 10.4539 2.5574 10.4631C2.5686 10.4651 2.57998 10.4665 2.59103 10.4692C2.65058 10.4812 2.71012 10.4963 2.76814 10.5143C2.78646 10.5204 2.80631 10.5264 2.82463 10.5324C2.87044 10.5474 2.91624 10.564 2.96052 10.582C2.97579 10.5881 2.99259 10.5941 3.00785 10.6001C3.05671 10.6212 3.10405 10.6437 3.15138 10.6678C3.17428 10.6799 3.19566 10.6919 3.21856 10.7039C3.2491 10.722 3.27963 10.7401 3.31017 10.7581C3.34376 10.7792 3.37582 10.8018 3.40941 10.8243C3.43842 10.8439 3.4659 10.865 3.49339 10.886C3.51934 10.9056 3.54377 10.9267 3.5682 10.9477C3.58652 10.9628 3.60332 10.9793 3.62012 10.9944C3.66898 11.0395 3.71631 11.0862 3.76059 11.1358C3.76974 11.1449 3.77738 11.1539 3.78654 11.1629C3.81097 11.1915 3.8354 11.2216 3.85983 11.2517C3.86898 11.2637 3.87968 11.2773 3.88884 11.2893C3.93769 11.3555 3.98503 11.4248 4.02625 11.4955C4.20642 11.8055 4.31025 12.1636 4.31025 12.5474C4.31025 13.7191 3.3462 14.6698 2.15758 14.6707C2.15655 14.6707 2.15559 14.6713 2.15512 14.6722Z" fill="#74D9FF"/>
<path d="M37.9593 35.3149C37.9597 35.3145 37.9596 35.3139 37.9591 35.3137C37.9258 35.2988 37.8926 35.2839 37.8608 35.2675C37.8364 35.2554 37.8104 35.2419 37.786 35.2283C37.7555 35.2118 37.7265 35.1937 37.6959 35.1742C37.6547 35.1486 37.615 35.1215 37.5753 35.0944C37.56 35.0839 37.5448 35.0718 37.5295 35.0613C37.4303 34.9861 37.3387 34.9033 37.2547 34.813C37.247 34.8055 37.2403 34.797 37.2331 34.7891C37.1489 34.696 37.0732 34.5947 37.0058 34.4865C36.8058 34.1644 36.6867 33.7852 36.6867 33.3789C36.6867 32.2066 37.6517 31.2556 38.8411 31.2556C40.0305 31.2556 40.9954 32.2066 40.9954 33.3789C40.9954 34.5512 40.0305 35.5022 38.8411 35.5022C38.7754 35.5022 38.7098 35.4977 38.6456 35.4932C38.6304 35.4932 38.6136 35.4902 38.5983 35.4887C38.5357 35.4812 38.4731 35.4736 38.412 35.4601C38.4029 35.4586 38.3952 35.4556 38.3861 35.4541C38.3342 35.4435 38.2822 35.43 38.2319 35.4149C38.212 35.4089 38.1937 35.4044 38.1754 35.3984C38.1219 35.3818 38.0685 35.3623 38.0166 35.3412C37.9971 35.3338 37.9776 35.3235 37.9596 35.316C37.9591 35.3158 37.959 35.3152 37.9593 35.3149Z" fill="#74D9FF"/>
<path d="M22.6452 2.3137C22.6447 2.31418 22.6444 2.31482 22.6443 2.31551C22.6428 2.33321 22.6413 2.35092 22.6383 2.36862C22.6322 2.42129 22.6246 2.47396 22.6139 2.52663C22.6093 2.55071 22.6032 2.57478 22.5986 2.59736C22.5895 2.63498 22.5803 2.6741 22.5696 2.71172C22.5605 2.74182 22.5513 2.77041 22.5421 2.79901C22.5345 2.82158 22.5253 2.84265 22.5177 2.86522C22.4948 2.92692 22.4688 2.98561 22.4398 3.04429C22.4353 3.05483 22.4291 3.06536 22.4246 3.0759C22.4062 3.11352 22.3849 3.14963 22.365 3.18575C21.9925 3.82079 21.2978 4.24817 20.5008 4.24817C19.7038 4.24817 19.009 3.81929 18.6365 3.18575C18.6151 3.14963 18.5953 3.11352 18.577 3.0759C18.5708 3.06386 18.5663 3.05332 18.5602 3.04128C18.5327 2.9841 18.5067 2.92692 18.4853 2.86672C18.4762 2.84415 18.467 2.82158 18.4594 2.7975C18.4502 2.76891 18.4411 2.74032 18.4319 2.71172C18.4212 2.6726 18.4105 2.63347 18.4014 2.59435C18.3968 2.57177 18.3907 2.55071 18.3861 2.52813C18.3754 2.47546 18.3678 2.42129 18.3617 2.36712C18.3601 2.34906 18.3571 2.3325 18.3556 2.31445C18.3495 2.25124 18.3464 2.18804 18.3464 2.12333C18.3464 0.95106 19.3114 0 20.5008 0C21.6902 0 22.6551 0.95106 22.6551 2.12333C22.6551 2.18618 22.6506 2.24902 22.646 2.31186C22.646 2.31256 22.6457 2.31321 22.6452 2.3137Z" fill="#74D9FF"/>
<path d="M20.0057 25.0698C18.8477 24.8005 18.1306 23.6569 18.4039 22.5155C18.6772 21.3742 19.8375 20.6674 20.9955 20.9367C22.1535 21.2061 22.8707 22.3497 22.5974 23.491C22.3241 24.6324 21.1637 25.3392 20.0057 25.0698Z" fill="#74D9FF"/>
<path d="M35.1629 12.5504C35.1629 13.2153 34.9287 13.9115 34.3509 14.2406L25.3149 19.3886C24.0976 20.082 22.5527 19.6871 21.1748 19.4345C20.9557 19.3943 20.7299 19.3733 20.4992 19.3733C20.2678 19.3733 20.0412 19.3945 19.8215 19.435C18.445 19.6888 16.902 20.0827 15.6858 19.3898L6.64751 14.2406C6.06981 13.9115 5.83554 13.2153 5.83554 12.5504C5.83554 11.5088 6.08542 10.3258 6.99065 9.81069L14.7414 5.39996C16.1672 4.58854 18.0332 5.26588 19.6284 5.6489C19.9076 5.71595 20.1993 5.7515 20.4992 5.7515C20.7992 5.7515 21.0908 5.71595 21.3701 5.6489C22.9653 5.26588 24.8312 4.58853 26.2571 5.39996L34.0077 9.81064C34.9127 10.3256 35.1629 11.5092 35.1629 12.5504Z" fill="#74D9FF"/>
<path d="M21.2627 28.9896C21.2627 27.5691 22.401 26.4108 23.3212 25.3286C23.8572 24.6982 24.1804 23.8863 24.1804 23.0015C24.1804 22.3366 24.4147 21.6404 24.9924 21.3113L34.9237 15.6533C35.6173 15.2581 36.4569 15.4212 37.1694 15.7812C38.012 16.207 38.8441 16.9439 38.8441 17.888V26.7507C38.8441 28.4076 37.303 29.6984 36.1605 30.8983C35.5422 31.5477 35.1629 32.4206 35.1629 33.3789C35.1629 34.45 34.9157 35.6766 33.9848 36.2063L25.1485 41.2341C24.3374 41.6956 23.3252 41.3823 22.5473 40.8668C21.8742 40.4207 21.2627 39.7515 21.2627 38.944V28.9896Z" fill="#74D9FF"/>
<path d="M2.15435 17.8887C2.15435 16.9442 2.98705 16.2066 3.82981 15.7802C4.54179 15.42 5.38067 15.2579 6.07396 15.6528L16.0061 21.3113C16.5838 21.6404 16.818 22.3366 16.818 23.0015C16.818 23.8863 17.1412 24.6982 17.6773 25.3286C18.5975 26.4108 19.7358 27.5691 19.7358 28.9895V38.9455C19.7358 39.753 19.1242 40.4222 18.4512 40.8683C17.6733 41.3838 16.6611 41.6971 15.85 41.2356L7.01369 36.2078C6.08274 35.6782 5.83554 34.4515 5.83554 33.3804C5.83554 32.4221 5.45627 31.5492 4.83796 30.8998C3.69544 29.6999 2.15435 28.4091 2.15435 26.7522V17.8887Z" fill="#74D9FF"/>
</svg>
