<svg width="956" height="55" viewBox="0 0 956 55" fill="none" xmlns="http://www.w3.org/2000/svg">
<path d="M706.996 53.2102V49.2687C706.996 46.7384 707.361 44.4513 708.091 42.4076C708.87 40.3639 710.086 38.4904 711.741 36.7873C713.395 35.0355 715.561 33.3811 718.237 31.8239C720.913 30.2668 724.174 28.734 728.018 27.2255L736.558 23.868C738.991 22.8947 740.888 22.0432 742.251 21.3133C743.662 20.5834 744.66 19.8778 745.244 19.1966C745.828 18.4667 746.12 17.7124 746.12 16.9338C746.12 15.4254 745.219 14.2575 743.419 13.4303C741.667 12.6031 739.21 12.1894 736.047 12.1894C732.397 12.1894 729.551 12.6274 727.507 13.5033C725.512 14.3792 724.32 15.693 723.93 17.4448H707.288C707.726 13.6979 709.138 10.535 711.522 7.95599C713.906 5.32832 717.215 3.35756 721.449 2.04373C725.682 0.681238 730.743 0 736.631 0C742.178 0 746.922 0.656912 750.864 1.97075C754.805 3.28458 757.822 5.18234 759.915 7.66403C762.007 10.1457 763.053 13.1383 763.053 16.6419C763.053 19.0262 762.518 21.216 761.448 23.211C760.377 25.1575 758.698 26.9822 756.411 28.6853C754.173 30.3885 751.277 31.9943 747.725 33.5027L741.667 36.0574C740.061 36.7387 738.626 37.3712 737.361 37.9552C736.095 38.4904 734.903 39.0257 733.784 39.561C732.665 40.0476 731.497 40.5828 730.281 41.1668H762.542V53.2102H706.996Z" fill="black"/>
<path d="M835.444 53.2102V49.2687C835.444 46.7384 835.809 44.4513 836.539 42.4076C837.317 40.3639 838.534 38.4904 840.188 36.7873C841.843 35.0355 844.008 33.3811 846.684 31.8239C849.361 30.2668 852.621 28.734 856.465 27.2255L865.005 23.868C867.438 22.8947 869.336 22.0432 870.698 21.3133C872.109 20.5834 873.107 19.8778 873.691 19.1966C874.275 18.4667 874.567 17.7124 874.567 16.9338C874.567 15.4254 873.667 14.2575 871.866 13.4303C870.114 12.6031 867.657 12.1894 864.494 12.1894C860.844 12.1894 857.998 12.6274 855.954 13.5033C853.959 14.3792 852.767 15.693 852.378 17.4448H835.736C836.174 13.6979 837.585 10.535 839.969 7.95599C842.354 5.32832 845.662 3.35756 849.896 2.04373C854.129 0.681238 859.19 0 865.078 0C870.625 0 875.37 0.656912 879.311 1.97075C883.253 3.28458 886.27 5.18234 888.362 7.66403C890.454 10.1457 891.501 13.1383 891.501 16.6419C891.501 19.0262 890.965 21.216 889.895 23.211C888.824 25.1575 887.146 26.9822 884.858 28.6853C882.62 30.3885 879.725 31.9943 876.173 33.5027L870.114 36.0574C868.509 36.7387 867.073 37.3712 865.808 37.9552C864.543 38.4904 863.351 39.0257 862.231 39.561C861.112 40.0476 859.944 40.5828 858.728 41.1668H890.99V53.2102H835.444Z" fill="black"/>
<path fill-rule="evenodd" clip-rule="evenodd" d="M927.607 0C933.738 4.96181e-05 938.702 0.632402 942.497 1.89746C946.341 3.16262 949.213 4.91502 951.11 7.15332C953.008 9.34281 954.127 11.8244 954.468 14.5977H937.826C937.534 13.868 936.925 13.2845 936.001 12.8467C935.077 12.4088 933.909 12.0921 932.498 11.8975C931.087 11.6542 929.529 11.5323 927.826 11.5322C925.637 11.5322 923.641 11.7762 921.841 12.2627C920.089 12.7006 918.58 13.4787 917.315 14.5977C916.05 15.6682 915.077 17.1531 914.396 19.0508C913.786 20.7047 913.45 22.7481 913.386 25.1807C914.138 24.288 915.108 23.4853 916.294 22.7734C918.289 21.5571 920.722 20.608 923.593 19.9268C926.464 19.2456 929.603 18.9043 933.009 18.9043C938.118 18.9044 942.376 19.635 945.782 21.0947C949.188 22.5059 951.743 24.4767 953.446 27.0068C955.149 29.537 956.001 32.457 956.001 35.7656C956.001 38.3932 955.465 40.8508 954.395 43.1377C953.373 45.3759 951.694 47.3468 949.358 49.0498C947.072 50.7041 944.079 51.9934 940.381 52.918C936.683 53.8425 932.157 54.3046 926.805 54.3047C919.652 54.3047 913.909 53.3075 909.578 51.3125C905.248 49.3175 902.109 46.3247 900.163 42.335C898.217 38.3448 897.242 33.3563 897.242 27.3711C897.242 24.5489 897.511 21.9212 898.046 19.4883C898.63 17.0555 899.482 14.8416 900.601 12.8467C901.768 10.8031 903.18 9.00236 904.834 7.44531C906.537 5.83968 908.508 4.50112 910.746 3.43066C913.033 2.31163 915.564 1.45986 918.337 0.875977C921.159 0.292114 924.25 0 927.607 0ZM926.805 30.3643C924.567 30.3643 922.645 30.4863 921.039 30.7295C919.482 30.9728 918.192 31.3613 917.17 31.8965C916.197 32.383 915.467 32.9919 914.98 33.7217C914.543 34.4028 914.324 35.2301 914.324 36.2031C914.324 37.4683 914.737 38.5392 915.564 39.415C916.44 40.2908 917.803 40.9724 919.652 41.459C921.501 41.8968 923.886 42.1152 926.805 42.1152C928.994 42.1152 930.869 41.9943 932.426 41.751C934.031 41.459 935.321 41.0695 936.294 40.583C937.316 40.0964 938.046 39.4876 938.483 38.7578C938.97 37.9793 939.214 37.1276 939.214 36.2031C939.214 34.9382 938.775 33.868 937.899 32.9922C937.072 32.1164 935.758 31.4594 933.958 31.0215C932.158 30.5836 929.773 30.3643 926.805 30.3643Z" fill="black"/>
<path fill-rule="evenodd" clip-rule="evenodd" d="M799.234 0.0732422C805.56 0.0733022 811.011 1.24053 815.585 3.57617C820.159 5.86311 823.686 9.05058 826.168 13.1377C828.698 17.1764 829.964 21.8485 829.964 27.1523C829.964 29.7798 829.647 32.2857 829.015 34.6699C828.382 37.0055 827.433 39.1956 826.168 41.2393C824.952 43.2342 823.443 45.0349 821.643 46.6406C819.891 48.2462 817.872 49.6094 815.585 50.7285C813.298 51.8476 810.791 52.6993 808.066 53.2832C805.342 53.9157 802.397 54.2314 799.234 54.2314C792.909 54.2314 787.434 53.0886 782.812 50.8018C778.238 48.4661 774.686 45.2542 772.155 41.167C769.674 37.0795 768.432 32.4077 768.432 27.1523C768.432 24.4762 768.749 21.9703 769.382 19.6348C770.014 17.2506 770.939 15.0604 772.155 13.0654C773.42 11.0705 774.929 9.26973 776.681 7.66406C778.481 6.05847 780.525 4.69526 782.812 3.57617C785.098 2.45709 787.605 1.60537 790.33 1.02148C793.103 0.389026 796.072 0.073274 799.234 0.0732422ZM799.376 6.84277C799.376 18.1802 790.184 27.3708 778.847 27.3711C790.184 27.3714 799.376 36.563 799.376 47.9004C799.376 36.5628 808.567 27.3711 819.904 27.3711C808.567 27.3711 799.376 18.1804 799.376 6.84277Z" fill="black"/>
<path d="M128.773 20.1869V33.4162L99.12 13.2295L69.4676 33.4162V20.1869L99.12 0.000274658L128.773 20.1869Z" fill="black"/>
<path d="M128.773 40.3736V53.6028L99.12 33.4162L69.4676 53.6028V40.3736L99.12 20.187L128.773 40.3736Z" fill="black"/>
<path d="M679.625 20.1867V33.4159L649.972 13.2292L620.32 33.4159V20.1867L649.972 0L679.625 20.1867Z" fill="black"/>
<path d="M679.625 40.3733V53.6026L649.972 33.4159L620.32 53.6026V40.3733L649.972 20.1867L679.625 40.3733Z" fill="black"/>
<path d="M16.2039 21.0947H43.4296V1.02158H59.56V53.1373H43.4296V33.3571H16.2039V53.1373H0V1.02158H16.2039V21.0947Z" fill="black"/>
<path d="M169.956 54.1591C162.949 54.1591 156.891 53.0643 151.782 50.8745C146.672 48.6848 142.731 45.5705 139.957 41.5317C137.184 37.4442 135.797 32.6269 135.797 27.0796C135.797 24.3059 136.137 21.7269 136.819 19.3425C137.548 16.9095 138.595 14.6955 139.957 12.7004C141.32 10.6566 142.998 8.85621 144.994 7.29907C146.989 5.74194 149.251 4.4281 151.782 3.35757C154.312 2.23838 157.086 1.41115 160.103 0.87589C163.168 0.291963 166.453 0 169.956 0C176.477 0 182.097 0.802898 186.817 2.40869C191.586 3.96583 195.357 6.22854 198.131 9.19683C200.904 12.1651 202.559 15.7903 203.094 20.0724H185.868C185.333 18.3693 184.36 16.9338 182.949 15.766C181.538 14.5981 179.737 13.7223 177.547 13.1383C175.358 12.5057 172.827 12.1894 169.956 12.1894C168.205 12.1894 166.55 12.3598 164.993 12.7004C163.436 12.9923 162 13.4303 160.687 14.0142C159.421 14.5981 158.278 15.3281 157.256 16.2039C156.283 17.0312 155.456 18.0044 154.774 19.1236C154.093 20.2428 153.558 21.4593 153.168 22.7731C152.828 24.0869 152.658 25.5224 152.658 27.0796C152.658 30.1452 153.363 32.7972 154.774 35.0355C156.185 37.2253 158.181 38.9284 160.76 40.1449C163.339 41.3614 166.404 41.9697 169.956 41.9697C172.876 41.9697 175.406 41.6777 177.547 41.0938C179.737 40.4612 181.538 39.561 182.949 38.3931C184.36 37.2253 185.333 35.7898 185.868 34.0867H203.094C202.559 38.3688 200.904 42.0183 198.131 45.0353C195.406 48.0036 191.659 50.2663 186.89 51.8234C182.17 53.3805 176.526 54.1591 169.956 54.1591Z" fill="black"/>
<path d="M208.707 53.1372V1.02185H224.911V23.88L248.852 1.02185H269.07L245.202 22.7001C246.613 23.2354 247.854 23.8679 248.925 24.5979C250.044 25.2791 251.09 26.1307 252.063 27.1525C253.085 28.1257 254.131 29.3422 255.202 30.8021L271.698 53.1372H252.136L239.071 35.1815C238.146 33.9163 237.1 33.2108 235.932 33.0648C234.765 32.9188 233.572 33.4054 232.356 34.5246L224.911 41.1567V53.1372H208.707Z" fill="black"/>
<path d="M377.499 53.137V1.02158H400.564L413.504 34.7363L426.621 1.02158H448.519V53.137H432.826V19.2453L419.103 53.137H405.892L392.097 19.0651V53.137H377.499Z" fill="black"/>
<path d="M527.471 53.137V1.02158H545.573L573.09 33.7536V1.02158H587.688V53.137H569.66L542.069 20.3651V53.137H527.471Z" fill="black"/>
<path d="M596.114 53.137V1.02158H612.318V53.137H596.114Z" fill="black"/>
<path fill-rule="evenodd" clip-rule="evenodd" d="M522.742 53.1367H453.328L478.51 1.02148H497.634L522.742 53.1367ZM468 52.917L487.958 41.1377L507.917 52.917L487.958 13L468 52.917Z" fill="black"/>
<path fill-rule="evenodd" clip-rule="evenodd" d="M330.639 1.14062C341.917 1.14068 351.532 8.25923 355.238 18.248H356.299C356.49 18.2481 356.681 18.2547 356.87 18.2656V9.65234C355.507 8.86348 354.588 7.39046 354.588 5.70215C354.588 3.18297 356.631 1.14071 359.15 1.14062C361.669 1.14089 363.712 3.18308 363.712 5.70215C363.712 7.39015 362.794 8.86338 361.432 9.65234V19.7178C364.171 21.4308 365.993 24.4736 365.993 27.9424C365.993 33.2961 361.653 37.6357 356.299 37.6357H354.785C350.79 47.0215 341.483 53.6025 330.639 53.6025H307.828C296.984 53.6022 287.678 47.0214 283.683 37.6357H281.027C275.674 37.6357 271.333 33.2961 271.333 27.9424C271.333 24.0112 273.674 20.6286 277.037 19.1074V9.65332C275.673 8.86461 274.755 7.3909 274.755 5.70215C274.755 3.18292 276.798 1.14062 279.317 1.14062C281.836 1.14106 283.879 3.18319 283.879 5.70215C283.879 7.38995 282.961 8.86331 281.599 9.65234V18.248H283.229C286.935 8.25943 296.55 1.141 307.828 1.14062H330.639ZM307.828 10.2646C298.38 10.265 290.723 17.9242 290.723 27.3721C290.723 36.8198 298.38 44.4792 307.828 44.4795H330.639C340.086 44.4793 347.745 36.8199 347.745 27.3721C347.745 17.9241 340.087 10.2648 330.639 10.2646H307.828Z" fill="black"/>
<path d="M319.235 13.6859C319.235 21.2444 325.362 27.3717 332.92 27.3717C325.362 27.3717 319.235 33.499 319.235 41.0575C319.235 33.499 313.107 27.3717 305.549 27.3717C313.107 27.3717 319.235 21.2444 319.235 13.6859Z" fill="black"/>
</svg>
