<svg width="46" height="46" viewBox="0 0 46 46" fill="none" xmlns="http://www.w3.org/2000/svg">
<path d="M20.7059 8.8846L21.2055 11.0259C22.8017 17.8733 28.1513 23.2206 35.0047 24.813L37.1479 25.3122C38.763 25.6885 38.763 27.9859 37.1479 28.3621L35.0047 28.8614C28.1513 30.4561 22.7993 35.801 21.2055 42.6485L20.7059 44.7898C20.3293 46.4034 18.0299 46.4034 17.6533 44.7898L17.1536 42.6485C15.5575 35.801 10.2079 30.4537 3.35448 28.8614L1.21131 28.3621C-0.403768 27.9859 -0.403768 25.6885 1.21131 25.3122L3.35448 24.813C10.2079 23.2183 15.5599 17.8733 17.1536 11.0259L17.6533 8.8846C18.0299 7.27094 20.3293 7.27094 20.7059 8.8846ZM37.7802 0.425893L37.4297 1.92835C36.8684 4.34174 34.981 6.22514 32.5655 6.78826L31.0618 7.13844C30.4934 7.27094 30.4934 8.08014 31.0618 8.21264L32.5655 8.56282C34.981 9.12358 36.8661 11.0093 37.4297 13.4227L37.7802 14.9252C37.9128 15.493 38.7227 15.493 38.8553 14.9252L39.2058 13.4227C39.767 11.0093 41.6545 9.12594 44.07 8.56282L45.5737 8.21264C46.1421 8.08014 46.1421 7.27094 45.5737 7.13844L44.07 6.78826C41.6545 6.2275 39.7694 4.34174 39.2058 1.92835L38.8553 0.425893C38.7227 -0.141964 37.9128 -0.141964 37.7802 0.425893Z" fill="#74D9FF"/>
</svg>
