<svg width="40" height="40" viewBox="0 0 40 40" fill="none" xmlns="http://www.w3.org/2000/svg">
<path fill-rule="evenodd" clip-rule="evenodd" d="M20 0C21.0355 1.83931e-06 22.0527 0.0782331 23.0458 0.230035C23.7077 0.331172 24.3589 0.46498 24.9978 0.62934C25.1577 0.670496 25.3169 0.713476 25.4753 0.758464C25.7917 0.848337 26.1051 0.945492 26.4149 1.05035C26.5699 1.10279 26.724 1.15699 26.8772 1.21311C34.4978 4.00353 39.9461 11.2992 39.9989 19.8741C39.9992 19.9189 40 19.9638 40 20.0087C40 20.3405 39.991 20.6704 39.975 20.9983C39.9731 21.0388 39.9697 21.0793 39.9674 21.1198C39.9335 21.739 39.872 22.3506 39.783 22.9536C39.7755 23.0043 39.767 23.0549 39.7591 23.1055C39.1536 27.0002 37.4271 30.5233 34.9175 33.3333C34.9163 33.33 34.9144 33.3269 34.9132 33.3236C31.2508 37.4201 25.9273 40 20 40C14.0718 40 8.74705 37.4199 5.08464 33.3225C5.08336 33.326 5.08266 33.3298 5.08138 33.3333C2.57202 30.5233 0.845023 27.0002 0.2398 23.1055C0.231918 23.0549 0.224516 23.0042 0.217014 22.9536C0.128059 22.3506 0.0653665 21.739 0.031467 21.1198C0.0292318 21.0793 0.0258654 21.0388 0.0238715 20.9983C0.00790247 20.6704 1.39785e-06 20.3405 0 20.0087C5.99555e-07 19.9638 0.00187489 19.9189 0.00217014 19.8741C0.0550205 11.2992 5.50219 4.00353 13.1228 1.21311C13.276 1.15699 13.4302 1.10279 13.5851 1.05035C13.8949 0.945492 14.2083 0.848337 14.5247 0.758464C14.6831 0.713476 14.8423 0.670496 15.0022 0.62934C15.6411 0.46498 16.2923 0.331172 16.9542 0.230035C17.9473 0.0782347 18.9645 2.47843e-09 20 0ZM20 22.8407C14.4325 22.8407 9.53584 25.7126 6.70898 30.0564C9.7522 34.0722 14.5729 36.6667 20 36.6667C25.4266 36.6667 30.2467 34.0726 33.2899 30.0575C30.4634 25.7133 25.5677 22.8407 20 22.8407ZM20 6.79579C16.3528 6.79582 13.3963 9.75406 13.3963 13.4028C13.3966 17.0512 16.353 20.0087 20 20.0087C23.647 20.0087 26.6034 17.0512 26.6037 13.4028C26.6037 9.75404 23.6472 6.79579 20 6.79579Z" fill="#74D9FF"/>
</svg>
