<svg width="29" height="40" viewBox="0 0 29 40" fill="none" xmlns="http://www.w3.org/2000/svg">
<path d="M8.5 37.625C8.5 38.9367 7.43668 40 6.125 40C4.81332 40 3.75 38.9367 3.75 37.625V24.375C3.75 23.0633 4.81332 22 6.125 22C7.43668 22 8.5 23.0633 8.5 24.375V37.625ZM28.5 23.25C28.5 24.2165 27.7165 25 26.75 25C25.7835 25 25 25.7835 25 26.75V37.625C25 38.9367 23.9367 40 22.625 40C21.3133 40 20.25 38.9367 20.25 37.625V27C20.25 25.8954 19.3546 25 18.25 25C17.1454 25 16.25 24.1046 16.25 23V22.5C16.25 21.1193 17.3693 20 18.75 20H26C27.3807 20 28.5 21.1193 28.5 22.5V23.25ZM8.5 10.125C8.5 11.1605 9.33947 12 10.375 12C11.4105 12 12.25 12.8395 12.25 13.875V14.5C12.25 15.8807 11.1307 17 9.75 17H2.5C1.11929 17 0 15.8807 0 14.5V13.875C0 12.8395 0.839466 12 1.875 12C2.91053 12 3.75 11.1605 3.75 10.125V2.375C3.75 1.06332 4.81332 0 6.125 0C7.43668 0 8.5 1.06332 8.5 2.375V10.125ZM25 12.625C25 13.9367 23.9367 15 22.625 15C21.3133 15 20.25 13.9367 20.25 12.625V2.375C20.25 1.06332 21.3133 0 22.625 0C23.9367 0 25 1.06332 25 2.375V12.625Z" fill="#74D9FF"/>
</svg>
