<svg width="75" height="67" viewBox="0 0 75 67" fill="none" xmlns="http://www.w3.org/2000/svg">
<path d="M39.3814 4.5449C47.9478 -2.07961 60.3053 -1.46218 68.1606 6.39743C76.6903 14.9273 76.6904 28.7551 68.1606 37.2802L39.2593 66.1806C38.1647 67.2747 36.3898 67.275 35.2954 66.1806L20.9673 51.8525H31.8921C32.4256 54.2574 34.5698 56.0564 37.1353 56.0566C40.102 56.0566 42.5071 53.6513 42.5073 50.6845C42.5073 47.7176 40.1022 45.3125 37.1353 45.3125C34.7386 45.3126 32.7087 46.8824 32.0171 49.0498H18.1646L6.39502 37.2802C6.11937 37.0046 5.85306 36.7229 5.59522 36.4365H20.6802C21.2134 38.8417 23.3587 40.6404 25.9243 40.6406C28.891 40.6404 31.2962 38.2352 31.2964 35.2685C31.2962 32.3019 28.8909 29.8966 25.9243 29.8965C23.5278 29.8966 21.498 31.4667 20.8062 33.6338H3.45557C0.999108 29.8145 -0.147432 25.3985 0.0151418 21.0215H9.46924C10.0027 23.4263 12.1471 25.2253 14.7124 25.2256C17.6792 25.2256 20.0843 22.8203 20.0845 19.8535C20.0845 16.8866 17.6793 14.4814 14.7124 14.4814C12.3159 14.4817 10.2869 16.0516 9.59522 18.2187H0.298345C1.02206 13.8897 3.05416 9.73663 6.39502 6.39743C14.2544 -1.46193 26.6115 -2.07976 35.1743 4.54392C36.3988 5.49115 38.1566 5.49171 39.3814 4.5449ZM37.1353 48.1152C38.5542 48.1152 39.7046 49.2656 39.7046 50.6845C39.7044 52.1033 38.5541 53.2539 37.1353 53.2539C35.7166 53.2537 34.5661 52.1032 34.5659 50.6845C34.5659 49.2657 35.7165 48.1154 37.1353 48.1152ZM25.9243 32.7002C27.343 32.7004 28.4934 33.8499 28.4937 35.2685C28.4935 36.6872 27.343 37.8377 25.9243 37.8379C24.5056 37.8377 23.3551 36.6872 23.355 35.2685C23.3552 33.8499 24.5057 32.7004 25.9243 32.7002ZM57.2954 11.5761C57.1081 10.775 55.9653 10.7751 55.7778 11.5761L55.2827 13.6972C54.4905 17.1038 51.8261 19.7627 48.4165 20.5576L46.2944 21.0517C45.4922 21.2388 45.4922 22.3803 46.2944 22.5674L48.4165 23.0625C51.826 23.854 54.4871 26.5153 55.2827 29.9218L55.7778 32.0429C55.9653 32.8441 57.1081 32.8442 57.2954 32.0429L57.7896 29.9218C58.5818 26.5153 61.2463 23.8574 64.6558 23.0625L66.7788 22.5674C67.5804 22.38 67.5804 21.2391 66.7788 21.0517L64.6558 20.5576C61.2462 19.7661 58.5851 17.1038 57.7896 13.6972L57.2954 11.5761ZM14.7124 17.2842C16.1314 17.2842 17.2817 18.4345 17.2817 19.8535C17.2816 21.2723 16.1313 22.4228 14.7124 22.4228C13.2939 22.4225 12.1432 21.2721 12.1431 19.8535C12.1431 18.4347 13.2937 17.2845 14.7124 17.2842Z" fill="url(#paint0_linear_887_709)"/>
<defs>
<linearGradient id="paint0_linear_887_709" x1="7.52584" y1="48.1757" x2="45.5509" y2="15.055" gradientUnits="userSpaceOnUse">
<stop stop-color="#FFEACC"/>
<stop offset="0.336538" stop-color="#FFBABA"/>
<stop offset="0.692308" stop-color="#E2D4FF"/>
<stop offset="1" stop-color="#A1E3FB"/>
</linearGradient>
</defs>
</svg>
